<svg xmlns="http://www.w3.org/2000/svg" xmlns:xlink="http://www.w3.org/1999/xlink" width="62.774" height="40.03" viewBox="0 0 62.774 40.03">
  <defs>
    <clipPath id="clip-path">
      <rect id="Rectangle_193" data-name="Rectangle 193" width="62.774" height="40.03" transform="translate(0 0)" fill="#c08c14"/>
    </clipPath>
  </defs>
  <g id="Group_327" data-name="Group 327" clip-path="url(#clip-path)">
    <path id="Path_256" data-name="Path 256" d="M35.281,0c1.7.357,3.412.652,5.091,1.084A36.882,36.882,0,0,1,50.44,5.416a4.452,4.452,0,0,0,2.135.619c3.288.065,6.579.028,10.2.028L57.72,11.588A15.808,15.808,0,0,1,58.6,33.718a16.076,16.076,0,0,1-22.265,1.016l-4.949,5.3-4.957-5.307a16.009,16.009,0,0,1-22.512-1.3A15.831,15.831,0,0,1,5.046,11.6L0,6.063c2.311,0,4.308-.1,6.291.023A13.914,13.914,0,0,0,14.9,4.077,28.676,28.676,0,0,1,27.006.234,2.226,2.226,0,0,0,27.576,0ZM15.764,12.7A10.479,10.479,0,0,0,5.211,23.117,10.543,10.543,0,1,0,15.764,12.7m31.279,0A10.429,10.429,0,0,0,36.506,23.111,10.525,10.525,0,1,0,47.043,12.7M19.9,7.391c6.013,2.747,10.046,6.762,11.479,13.47C32.8,14.174,36.881,10.1,42.868,7.382A30.777,30.777,0,0,0,19.9,7.391" transform="translate(0 0)" fill="#c08c14"/>
    <path id="Path_257" data-name="Path 257" d="M45.038,68.3a5.558,5.558,0,1,1-5.686,5.458A5.529,5.529,0,0,1,45.038,68.3" transform="translate(-29.235 -50.74)" fill="#c08c14"/>
    <path id="Path_258" data-name="Path 258" d="M161.231,73.805a5.474,5.474,0,0,1,5.637-5.506,5.558,5.558,0,1,1-5.637,5.506" transform="translate(-119.781 -50.741)" fill="#c08c14"/>
  </g>
</svg>
