<svg xmlns="http://www.w3.org/2000/svg" xmlns:xlink="http://www.w3.org/1999/xlink" width="57.624" height="36.746" viewBox="0 0 57.624 36.746">
  <defs>
    <clipPath id="clip-path">
      <rect id="Rectangle_32" data-name="Rectangle 32" width="57.624" height="36.746" transform="translate(0 0.001)" fill="#c6c6c6"/>
    </clipPath>
  </defs>
  <g id="Group_10" data-name="Group 10" transform="translate(0 -0.001)" clip-path="url(#clip-path)">
    <path id="Path_118" data-name="Path 118" d="M32.387,0c1.559.328,3.132.6,4.673.995A33.857,33.857,0,0,1,46.3,4.971a4.087,4.087,0,0,0,1.96.568c3.019.059,6.039.026,9.362.026l-4.639,5.072a14.511,14.511,0,0,1,.806,20.315,14.757,14.757,0,0,1-20.438.933L28.81,36.746l-4.55-4.871a14.7,14.7,0,0,1-20.665-1.19A14.532,14.532,0,0,1,4.632,10.645L0,5.565c2.121,0,3.954-.092,5.775.021a12.773,12.773,0,0,0,7.9-1.844A26.324,26.324,0,0,1,24.791.215,2.043,2.043,0,0,0,25.314,0ZM14.471,11.658a9.619,9.619,0,0,0-9.687,9.562,9.678,9.678,0,1,0,9.687-9.562m28.713,0a9.573,9.573,0,0,0-9.672,9.557,9.662,9.662,0,1,0,9.672-9.557M18.263,6.784c5.52,2.522,9.222,6.208,10.537,12.365,1.308-6.139,5.055-9.88,10.551-12.373a28.252,28.252,0,0,0-21.089.008" transform="translate(0 0.001)" fill="#c6c6c6"/>
    <path id="Path_119" data-name="Path 119" d="M44.571,68.3a5.1,5.1,0,1,1-5.219,5.011A5.075,5.075,0,0,1,44.571,68.3" transform="translate(-30.065 -52.18)" fill="#c6c6c6"/>
    <path id="Path_120" data-name="Path 120" d="M161.231,73.354a5.025,5.025,0,0,1,5.175-5.054,5.1,5.1,0,1,1-5.175,5.054" transform="translate(-123.181 -52.18)" fill="#c6c6c6"/>
  </g>
</svg>
