<svg xmlns="http://www.w3.org/2000/svg" width="36.756" height="36.748" viewBox="0 0 36.756 36.748">
  <path id="Icon_awesome-instagram" data-name="Icon awesome-instagram" d="M18.377,11.19A9.422,9.422,0,1,0,27.8,20.612,9.407,9.407,0,0,0,18.377,11.19Zm0,15.547A6.125,6.125,0,1,1,24.5,20.612a6.136,6.136,0,0,1-6.125,6.125Zm12-15.932a2.2,2.2,0,1,1-2.2-2.2A2.192,2.192,0,0,1,30.381,10.8Zm6.24,2.23c-.139-2.944-.812-5.551-2.968-7.7s-4.756-2.821-7.7-2.968c-3.034-.172-12.128-.172-15.162,0-2.936.139-5.543.812-7.7,2.96S.271,10.083.124,13.027c-.172,3.034-.172,12.128,0,15.162.139,2.944.812,5.551,2.968,7.7s4.756,2.821,7.7,2.968c3.034.172,12.128.172,15.162,0,2.944-.139,5.551-.812,7.7-2.968s2.821-4.756,2.968-7.7c.172-3.034.172-12.119,0-15.153ZM32.7,31.444a6.2,6.2,0,0,1-3.493,3.493c-2.419.959-8.159.738-10.832.738s-8.421.213-10.832-.738a6.2,6.2,0,0,1-3.493-3.493c-.959-2.419-.738-8.159-.738-10.832S3.1,12.19,4.052,9.78A6.2,6.2,0,0,1,7.545,6.286c2.419-.959,8.159-.738,10.832-.738s8.421-.213,10.832.738A6.2,6.2,0,0,1,32.7,9.78c.959,2.419.738,8.159.738,10.832S33.661,29.033,32.7,31.444Z" transform="translate(0.005 -2.238)" fill="#c6c6c6"/>
</svg>
