<svg xmlns="http://www.w3.org/2000/svg" width="40.664" height="40.655" viewBox="0 0 40.664 40.655">
  <path id="Icon_awesome-instagram" data-name="Icon awesome-instagram" d="M20.331,12.142A10.423,10.423,0,1,0,30.755,22.565,10.407,10.407,0,0,0,20.331,12.142Zm0,17.2a6.777,6.777,0,1,1,6.777-6.777,6.789,6.789,0,0,1-6.777,6.777ZM33.612,11.715a2.431,2.431,0,1,1-2.431-2.431A2.426,2.426,0,0,1,33.612,11.715Zm6.9,2.468c-.154-3.257-.9-6.142-3.284-8.518S31.97,2.544,28.714,2.381c-3.357-.191-13.417-.191-16.774,0-3.248.154-6.133.9-8.518,3.275S.3,10.917.138,14.174c-.191,3.357-.191,13.417,0,16.774.154,3.257.9,6.142,3.284,8.518s5.262,3.121,8.518,3.284c3.357.191,13.417.191,16.774,0,3.257-.154,6.142-.9,8.518-3.284s3.121-5.262,3.284-8.518c.191-3.357.191-13.408,0-16.765ZM36.18,34.549a6.861,6.861,0,0,1-3.865,3.865c-2.676,1.061-9.026.816-11.984.816s-9.317.236-11.984-.816a6.861,6.861,0,0,1-3.865-3.865c-1.061-2.676-.816-9.026-.816-11.984s-.236-9.317.816-11.984A6.861,6.861,0,0,1,8.348,6.717C11.024,5.655,17.374,5.9,20.331,5.9s9.317-.236,11.984.816a6.861,6.861,0,0,1,3.865,3.865c1.061,2.676.816,9.026.816,11.984S37.241,31.882,36.18,34.549Z" transform="translate(0.005 -2.238)" fill="#c08c14"/>
</svg>
