<svg xmlns="http://www.w3.org/2000/svg" xmlns:xlink="http://www.w3.org/1999/xlink" width="156.199" height="106.822" viewBox="0 0 156.199 106.822">
  <defs>
    <clipPath id="clip-path">
      <rect id="Rectangle_237" data-name="Rectangle 237" width="106.822" height="156.199" rx="1.589" fill="#f2f0ef"/>
    </clipPath>
  </defs>
  <g id="Group_631" data-name="Group 631" transform="translate(-355.213 1002.274) rotate(-90)" opacity="0.502">
    <g id="Group_437" data-name="Group 437" transform="translate(895.452 355.213)" clip-path="url(#clip-path)">
      <g id="Group_436" data-name="Group 436" transform="translate(-9.958 -259.043)">
        <g id="Group_433" data-name="Group 433" opacity="0.13">
          <path id="Path_332" data-name="Path 332" d="M912.472,182.681s1.46,20.871,23.223,24.692c0,0-21.732,3.73-22.251,23.858,0,0-1.217-22.421-24.67-22.667C888.775,208.564,912.865,205.507,912.472,182.681Z" transform="translate(-888.775 -180.924)" fill="#f2f0ef"/>
          <path id="Path_333" data-name="Path 333" d="M950.447,183.038s1.458,20.87,23.222,24.692c0,0-21.73,3.73-22.251,23.857,0,0-1.217-22.419-24.668-22.665C926.75,208.921,950.838,205.863,950.447,183.038Z" transform="translate(-870.121 -180.749)" fill="#f2f0ef"/>
          <path id="Path_334" data-name="Path 334" d="M986.282,182.635s1.458,20.871,23.223,24.692c0,0-21.732,3.73-22.251,23.858,0,0-1.218-22.421-24.669-22.667C962.585,208.518,986.674,205.461,986.282,182.635Z" transform="translate(-852.517 -180.947)" fill="#f2f0ef"/>
          <path id="Path_335" data-name="Path 335" d="M913.625,217.326s1.458,20.871,23.221,24.692c0,0-21.73,3.73-22.251,23.857,0,0-1.217-22.419-24.668-22.665C889.928,243.209,914.016,240.152,913.625,217.326Z" transform="translate(-888.208 -163.905)" fill="#f2f0ef"/>
          <path id="Path_336" data-name="Path 336" d="M951.6,217.682s1.46,20.871,23.223,24.693c0,0-21.732,3.728-22.251,23.857,0,0-1.217-22.419-24.67-22.667C927.9,243.565,951.992,240.508,951.6,217.682Z" transform="translate(-869.554 -163.731)" fill="#f2f0ef"/>
          <path id="Path_337" data-name="Path 337" d="M987.152,217.277s1.46,20.871,23.223,24.693c0,0-21.732,3.728-22.251,23.857,0,0-1.217-22.421-24.67-22.667C963.455,243.16,987.544,240.1,987.152,217.277Z" transform="translate(-852.09 -163.93)" fill="#f2f0ef"/>
          <path id="Path_338" data-name="Path 338" d="M1020.841,181.549s1.458,20.87,23.223,24.692c0,0-21.732,3.728-22.251,23.857,0,0-1.217-22.419-24.67-22.665C997.144,207.432,1021.234,204.374,1020.841,181.549Z" transform="translate(-835.54 -181.48)" fill="#f2f0ef"/>
          <path id="Path_339" data-name="Path 339" d="M1058.816,181.9s1.458,20.871,23.222,24.692c0,0-21.73,3.73-22.251,23.858,0,0-1.217-22.421-24.668-22.667C1035.119,207.788,1059.207,204.731,1058.816,181.9Z" transform="translate(-816.885 -181.306)" fill="#f2f0ef"/>
          <path id="Path_340" data-name="Path 340" d="M1094.651,181.5s1.458,20.87,23.223,24.692c0,0-21.731,3.728-22.251,23.857,0,0-1.218-22.419-24.669-22.665C1070.954,207.386,1095.043,204.328,1094.651,181.5Z" transform="translate(-799.282 -181.503)" fill="#f2f0ef"/>
          <path id="Path_341" data-name="Path 341" d="M1021.994,216.193s1.458,20.871,23.221,24.692c0,0-21.73,3.73-22.25,23.858,0,0-1.217-22.421-24.668-22.667C998.3,242.076,1022.385,239.019,1021.994,216.193Z" transform="translate(-834.974 -164.462)" fill="#f2f0ef"/>
          <path id="Path_342" data-name="Path 342" d="M1059.968,216.55s1.46,20.871,23.223,24.692c0,0-21.732,3.73-22.251,23.857,0,0-1.217-22.419-24.67-22.665C1036.271,242.433,1060.36,239.376,1059.968,216.55Z" transform="translate(-816.319 -164.287)" fill="#f2f0ef"/>
          <path id="Path_343" data-name="Path 343" d="M1095.521,216.145s1.46,20.87,23.223,24.692c0,0-21.732,3.73-22.251,23.857,0,0-1.217-22.419-24.669-22.665C1071.824,242.028,1095.914,238.97,1095.521,216.145Z" transform="translate(-798.855 -164.486)" fill="#f2f0ef"/>
          <path id="Path_344" data-name="Path 344" d="M914.513,252.1s1.458,20.871,23.222,24.693c0,0-21.73,3.728-22.251,23.857,0,0-1.217-22.421-24.668-22.667C890.816,277.984,914.9,274.927,914.513,252.1Z" transform="translate(-887.772 -146.823)" fill="#f2f0ef"/>
          <path id="Path_345" data-name="Path 345" d="M952.487,252.458s1.458,20.871,23.223,24.692c0,0-21.732,3.73-22.251,23.858,0,0-1.217-22.421-24.669-22.667C928.79,278.341,952.88,275.284,952.487,252.458Z" transform="translate(-869.118 -146.647)" fill="#f2f0ef"/>
          <path id="Path_346" data-name="Path 346" d="M988.322,252.055s1.46,20.871,23.223,24.693c0,0-21.732,3.728-22.251,23.857,0,0-1.217-22.419-24.67-22.667C964.625,277.938,988.714,274.881,988.322,252.055Z" transform="translate(-851.515 -146.845)" fill="#f2f0ef"/>
          <path id="Path_347" data-name="Path 347" d="M915.665,286.746s1.458,20.871,23.223,24.692c0,0-21.732,3.73-22.25,23.858,0,0-1.217-22.421-24.669-22.667C891.968,312.629,916.057,309.572,915.665,286.746Z" transform="translate(-887.207 -129.804)" fill="#f2f0ef"/>
          <path id="Path_348" data-name="Path 348" d="M953.64,287.1s1.459,20.87,23.222,24.692c0,0-21.73,3.728-22.251,23.857,0,0-1.217-22.419-24.668-22.665C929.943,312.986,954.031,309.928,953.64,287.1Z" transform="translate(-868.552 -129.628)" fill="#f2f0ef"/>
          <path id="Path_349" data-name="Path 349" d="M989.193,286.7s1.458,20.87,23.221,24.692c0,0-21.73,3.728-22.251,23.857,0,0-1.217-22.419-24.668-22.667C965.5,312.58,989.584,309.523,989.193,286.7Z" transform="translate(-851.087 -129.827)" fill="#f2f0ef"/>
          <path id="Path_350" data-name="Path 350" d="M1022.808,251.707s1.458,20.871,23.223,24.692c0,0-21.732,3.73-22.251,23.858,0,0-1.218-22.421-24.669-22.667C999.111,277.59,1023.2,274.533,1022.808,251.707Z" transform="translate(-834.574 -147.016)" fill="#f2f0ef"/>
          <path id="Path_351" data-name="Path 351" d="M1060.784,252.064s1.458,20.87,23.222,24.692c0,0-21.73,3.728-22.251,23.857,0,0-1.217-22.419-24.669-22.667C1037.085,277.946,1061.175,274.889,1060.784,252.064Z" transform="translate(-815.92 -146.841)" fill="#f2f0ef"/>
          <path id="Path_352" data-name="Path 352" d="M1096.618,251.661s1.459,20.871,23.222,24.692c0,0-21.73,3.73-22.251,23.858,0,0-1.217-22.421-24.668-22.667C1072.921,277.544,1097.009,274.487,1096.618,251.661Z" transform="translate(-798.316 -147.039)" fill="#f2f0ef"/>
          <path id="Path_353" data-name="Path 353" d="M1023.962,286.352s1.459,20.87,23.222,24.692c0,0-21.73,3.73-22.25,23.857,0,0-1.217-22.419-24.67-22.665C1000.263,312.235,1024.353,309.177,1023.962,286.352Z" transform="translate(-834.008 -129.997)" fill="#f2f0ef"/>
          <path id="Path_354" data-name="Path 354" d="M1061.935,286.708s1.458,20.871,23.223,24.692c0,0-21.732,3.73-22.251,23.858,0,0-1.217-22.421-24.67-22.667C1038.238,312.591,1062.328,309.534,1061.935,286.708Z" transform="translate(-815.353 -129.822)" fill="#f2f0ef"/>
          <path id="Path_355" data-name="Path 355" d="M1097.489,286.3s1.458,20.871,23.223,24.692c0,0-21.732,3.73-22.251,23.858,0,0-1.217-22.421-24.67-22.667C1073.791,312.186,1097.88,309.129,1097.489,286.3Z" transform="translate(-797.889 -130.021)" fill="#f2f0ef"/>
        </g>
        <g id="Group_434" data-name="Group 434" transform="translate(6.548 207.747)">
          <path id="Path_356" data-name="Path 356" d="M916.863,322.28s1.458,20.87,23.222,24.692c0,0-21.73,3.728-22.251,23.857,0,0-1.217-22.419-24.668-22.665C893.166,348.163,917.254,345.1,916.863,322.28Z" transform="translate(-893.166 -320.095)" fill="#f2f0ef"/>
          <path id="Path_357" data-name="Path 357" d="M954.236,320.815s1.458,20.871,23.221,24.692c0,0-21.73,3.73-22.251,23.858,0,0-1.217-22.421-24.668-22.667C930.539,346.7,954.627,343.641,954.236,320.815Z" transform="translate(-874.807 -320.815)" fill="#f2f0ef"/>
          <path id="Path_358" data-name="Path 358" d="M989.915,322.08s1.458,20.871,23.222,24.692c0,0-21.73,3.73-22.251,23.858,0,0-1.217-22.421-24.668-22.667C966.218,347.963,990.306,344.906,989.915,322.08Z" transform="translate(-857.28 -320.194)" fill="#f2f0ef"/>
          <path id="Path_359" data-name="Path 359" d="M917.559,357.378s1.458,20.871,23.223,24.692c0,0-21.732,3.73-22.251,23.857,0,0-1.217-22.419-24.67-22.665C893.862,383.261,917.952,380.2,917.559,357.378Z" transform="translate(-892.824 -302.854)" fill="#f2f0ef"/>
          <path id="Path_360" data-name="Path 360" d="M955.047,356.465s1.46,20.871,23.223,24.692c0,0-21.732,3.73-22.251,23.858,0,0-1.217-22.421-24.67-22.667C931.349,382.348,955.439,379.291,955.047,356.465Z" transform="translate(-874.409 -303.302)" fill="#f2f0ef"/>
          <path id="Path_361" data-name="Path 361" d="M990.785,356.722s1.458,20.871,23.223,24.692c0,0-21.732,3.73-22.251,23.858,0,0-1.217-22.421-24.67-22.667C967.088,382.605,991.177,379.548,990.785,356.722Z" transform="translate(-856.853 -303.176)" fill="#f2f0ef"/>
          <path id="Path_362" data-name="Path 362" d="M1024.475,320.993s1.458,20.871,23.223,24.692c0,0-21.732,3.73-22.251,23.858,0,0-1.218-22.421-24.669-22.667C1000.777,346.876,1024.866,343.819,1024.475,320.993Z" transform="translate(-840.304 -320.728)" fill="#f2f0ef"/>
          <path id="Path_363" data-name="Path 363" d="M1062.448,321.35s1.46,20.871,23.223,24.692c0,0-21.73,3.73-22.251,23.857,0,0-1.217-22.419-24.67-22.665C1038.751,347.233,1062.84,344.176,1062.448,321.35Z" transform="translate(-821.649 -320.552)" fill="#f2f0ef"/>
          <path id="Path_364" data-name="Path 364" d="M1098.285,320.947s1.458,20.871,23.221,24.693c0,0-21.73,3.728-22.251,23.857,0,0-1.217-22.421-24.669-22.667C1074.586,346.83,1098.676,343.773,1098.285,320.947Z" transform="translate(-804.046 -320.75)" fill="#f2f0ef"/>
          <path id="Path_365" data-name="Path 365" d="M1025.627,355.638s1.46,20.871,23.223,24.692c0,0-21.73,3.73-22.25,23.858,0,0-1.217-22.421-24.67-22.667C1001.929,381.521,1026.019,378.464,1025.627,355.638Z" transform="translate(-839.738 -303.709)" fill="#f2f0ef"/>
          <path id="Path_366" data-name="Path 366" d="M1063.6,356s1.458,20.87,23.223,24.692c0,0-21.732,3.728-22.25,23.857,0,0-1.218-22.419-24.67-22.667C1039.9,381.877,1063.993,378.82,1063.6,356Z" transform="translate(-821.083 -303.533)" fill="#f2f0ef"/>
          <path id="Path_367" data-name="Path 367" d="M1099.155,355.589s1.458,20.871,23.223,24.693c0,0-21.732,3.728-22.251,23.857,0,0-1.217-22.421-24.669-22.667C1075.457,381.472,1099.547,378.415,1099.155,355.589Z" transform="translate(-803.618 -303.733)" fill="#f2f0ef"/>
          <path id="Path_368" data-name="Path 368" d="M918.6,391.547s1.458,20.871,23.223,24.693c0,0-21.732,3.728-22.251,23.857,0,0-1.217-22.421-24.67-22.667C894.9,417.43,918.993,414.373,918.6,391.547Z" transform="translate(-892.313 -286.069)" fill="#f2f0ef"/>
          <path id="Path_369" data-name="Path 369" d="M955.667,391.3s1.458,20.871,23.221,24.692c0,0-21.73,3.73-22.251,23.857,0,0-1.217-22.419-24.668-22.665C931.97,417.178,956.058,414.121,955.667,391.3Z" transform="translate(-874.104 -286.193)" fill="#f2f0ef"/>
          <path id="Path_370" data-name="Path 370" d="M991.955,391.5s1.458,20.871,23.223,24.692c0,0-21.732,3.729-22.251,23.858,0,0-1.217-22.421-24.67-22.667C968.258,417.383,992.348,414.326,991.955,391.5Z" transform="translate(-856.278 -286.092)" fill="#f2f0ef"/>
          <path id="Path_371" data-name="Path 371" d="M919,425.584s1.46,20.87,23.223,24.692c0,0-21.732,3.728-22.251,23.857,0,0-1.217-22.419-24.67-22.667C895.3,451.466,919.388,448.409,919,425.584Z" transform="translate(-892.118 -269.349)" fill="#f2f0ef"/>
          <path id="Path_372" data-name="Path 372" d="M956.178,425.6s1.458,20.87,23.221,24.692c0,0-21.73,3.728-22.251,23.857,0,0-1.217-22.419-24.668-22.665C932.481,451.481,956.569,448.423,956.178,425.6Z" transform="translate(-873.853 -269.342)" fill="#f2f0ef"/>
          <path id="Path_373" data-name="Path 373" d="M992.825,426.142s1.46,20.871,23.223,24.692c0,0-21.73,3.73-22.251,23.858,0,0-1.217-22.421-24.67-22.667C969.128,452.025,993.218,448.968,992.825,426.142Z" transform="translate(-855.851 -269.074)" fill="#f2f0ef"/>
          <path id="Path_374" data-name="Path 374" d="M1026.441,391.152s1.458,20.87,23.222,24.692c0,0-21.73,3.728-22.251,23.857,0,0-1.217-22.419-24.668-22.665C1002.744,417.035,1026.832,413.977,1026.441,391.152Z" transform="translate(-839.337 -286.263)" fill="#f2f0ef"/>
          <path id="Path_375" data-name="Path 375" d="M1064.415,391.508s1.46,20.871,23.223,24.692c0,0-21.732,3.73-22.251,23.858,0,0-1.217-22.421-24.67-22.667C1040.718,417.391,1064.807,414.334,1064.415,391.508Z" transform="translate(-820.683 -286.088)" fill="#f2f0ef"/>
          <path id="Path_376" data-name="Path 376" d="M1100.25,391.106s1.46,20.87,23.223,24.692c0,0-21.732,3.73-22.25,23.857,0,0-1.217-22.419-24.67-22.665C1076.553,416.99,1100.642,413.931,1100.25,391.106Z" transform="translate(-803.08 -286.285)" fill="#f2f0ef"/>
          <path id="Path_377" data-name="Path 377" d="M1027.593,425.8s1.46,20.871,23.223,24.693c0,0-21.732,3.728-22.25,23.857,0,0-1.217-22.421-24.67-22.667C1003.9,451.679,1027.985,448.622,1027.593,425.8Z" transform="translate(-838.771 -269.244)" fill="#f2f0ef"/>
          <path id="Path_378" data-name="Path 378" d="M1065.568,426.153s1.458,20.871,23.222,24.692c0,0-21.73,3.729-22.251,23.857,0,0-1.217-22.419-24.668-22.665C1041.871,452.036,1065.961,448.979,1065.568,426.153Z" transform="translate(-820.116 -269.069)" fill="#f2f0ef"/>
          <path id="Path_379" data-name="Path 379" d="M1101.121,425.748s1.458,20.871,23.223,24.692c0,0-21.732,3.729-22.251,23.857,0,0-1.218-22.419-24.67-22.665C1077.424,451.631,1101.513,448.574,1101.121,425.748Z" transform="translate(-802.652 -269.268)" fill="#f2f0ef"/>
        </g>
        <g id="Group_435" data-name="Group 435" transform="translate(11.187 413.568)" opacity="0.13">
          <path id="Path_380" data-name="Path 380" d="M919.974,460.013s1.458,20.871,23.223,24.693c0,0-21.732,3.728-22.251,23.857,0,0-1.217-22.421-24.67-22.667C896.277,485.9,920.367,482.839,919.974,460.013Z" transform="translate(-896.277 -458.256)" fill="#f2f0ef"/>
          <path id="Path_381" data-name="Path 381" d="M957.95,460.37s1.458,20.871,23.222,24.692c0,0-21.73,3.73-22.251,23.857,0,0-1.217-22.419-24.67-22.665C934.251,486.253,958.341,483.2,957.95,460.37Z" transform="translate(-877.623 -458.081)" fill="#f2f0ef"/>
          <path id="Path_382" data-name="Path 382" d="M993.784,459.967s1.458,20.871,23.222,24.693c0,0-21.73,3.728-22.251,23.857,0,0-1.217-22.421-24.668-22.667C970.087,485.85,994.175,482.793,993.784,459.967Z" transform="translate(-860.019 -458.279)" fill="#f2f0ef"/>
          <path id="Path_383" data-name="Path 383" d="M921.128,494.658s1.459,20.871,23.222,24.692c0,0-21.73,3.729-22.251,23.858,0,0-1.217-22.421-24.669-22.667C897.429,520.541,921.518,517.484,921.128,494.658Z" transform="translate(-895.711 -441.238)" fill="#f2f0ef"/>
          <path id="Path_384" data-name="Path 384" d="M959.1,495.015s1.459,20.87,23.223,24.692c0,0-21.732,3.728-22.25,23.857,0,0-1.217-22.419-24.67-22.665C935.4,520.9,959.494,517.84,959.1,495.015Z" transform="translate(-877.057 -441.062)" fill="#f2f0ef"/>
          <path id="Path_385" data-name="Path 385" d="M994.654,494.609s1.458,20.871,23.223,24.693c0,0-21.732,3.728-22.251,23.857,0,0-1.217-22.419-24.669-22.667C970.957,520.492,995.047,517.435,994.654,494.609Z" transform="translate(-859.591 -441.261)" fill="#f2f0ef"/>
          <path id="Path_386" data-name="Path 386" d="M1028.343,458.881s1.458,20.87,23.223,24.692c0,0-21.732,3.73-22.251,23.857,0,0-1.218-22.419-24.669-22.665C1004.646,484.764,1028.735,481.706,1028.343,458.881Z" transform="translate(-843.042 -458.812)" fill="#f2f0ef"/>
          <path id="Path_387" data-name="Path 387" d="M1066.319,459.237s1.459,20.871,23.222,24.692c0,0-21.73,3.73-22.251,23.858,0,0-1.217-22.421-24.669-22.667C1042.62,485.12,1066.709,482.064,1066.319,459.237Z" transform="translate(-824.388 -458.638)" fill="#f2f0ef"/>
          <path id="Path_388" data-name="Path 388" d="M1102.153,458.835s1.458,20.87,23.221,24.692c0,0-21.73,3.73-22.25,23.857,0,0-1.217-22.419-24.668-22.665C1078.456,484.718,1102.544,481.661,1102.153,458.835Z" transform="translate(-806.784 -458.835)" fill="#f2f0ef"/>
          <path id="Path_389" data-name="Path 389" d="M1029.5,493.525s1.458,20.871,23.222,24.693c0,0-21.73,3.728-22.251,23.857,0,0-1.217-22.421-24.67-22.667C1005.8,519.408,1029.888,516.351,1029.5,493.525Z" transform="translate(-842.476 -441.794)" fill="#f2f0ef"/>
          <path id="Path_390" data-name="Path 390" d="M1067.47,493.882s1.459,20.871,23.223,24.692c0,0-21.732,3.73-22.251,23.858,0,0-1.217-22.421-24.67-22.667C1043.773,519.765,1067.863,516.708,1067.47,493.882Z" transform="translate(-823.821 -441.619)" fill="#f2f0ef"/>
          <path id="Path_391" data-name="Path 391" d="M1103.023,493.477s1.458,20.871,23.223,24.692c0,0-21.732,3.73-22.251,23.857,0,0-1.217-22.419-24.669-22.665C1079.326,519.361,1103.415,516.3,1103.023,493.477Z" transform="translate(-806.357 -441.818)" fill="#f2f0ef"/>
          <path id="Path_392" data-name="Path 392" d="M922.014,529.434s1.46,20.87,23.223,24.692c0,0-21.73,3.728-22.251,23.857,0,0-1.217-22.419-24.67-22.667C898.317,555.316,922.406,552.259,922.014,529.434Z" transform="translate(-895.275 -424.154)" fill="#f2f0ef"/>
          <path id="Path_393" data-name="Path 393" d="M959.989,529.79s1.458,20.872,23.223,24.692c0,0-21.732,3.73-22.251,23.858,0,0-1.219-22.421-24.67-22.667C936.292,555.673,960.382,552.616,959.989,529.79Z" transform="translate(-876.62 -423.979)" fill="#f2f0ef"/>
          <path id="Path_394" data-name="Path 394" d="M995.824,529.388s1.458,20.87,23.223,24.692c0,0-21.732,3.728-22.251,23.857,0,0-1.217-22.419-24.669-22.665C972.127,555.272,996.217,552.213,995.824,529.388Z" transform="translate(-859.017 -424.177)" fill="#f2f0ef"/>
          <path id="Path_395" data-name="Path 395" d="M923.167,564.078s1.458,20.871,23.223,24.692c0,0-21.732,3.73-22.251,23.858,0,0-1.219-22.421-24.67-22.667C899.47,589.961,923.559,586.9,923.167,564.078Z" transform="translate(-894.709 -407.136)" fill="#f2f0ef"/>
          <path id="Path_396" data-name="Path 396" d="M961.143,564.435s1.459,20.87,23.222,24.692c0,0-21.73,3.73-22.251,23.857,0,0-1.217-22.419-24.67-22.665C937.444,590.318,961.534,587.261,961.143,564.435Z" transform="translate(-876.054 -406.96)" fill="#f2f0ef"/>
          <path id="Path_397" data-name="Path 397" d="M996.7,564.03s1.458,20.87,23.221,24.692c0,0-21.73,3.728-22.251,23.857,0,0-1.217-22.419-24.669-22.665C973,589.913,997.087,586.855,996.7,564.03Z" transform="translate(-858.589 -407.159)" fill="#f2f0ef"/>
          <path id="Path_398" data-name="Path 398" d="M1030.31,529.039s1.458,20.871,23.221,24.692c0,0-21.73,3.73-22.251,23.858,0,0-1.217-22.421-24.668-22.667C1006.613,554.922,1030.7,551.866,1030.31,529.039Z" transform="translate(-842.076 -424.348)" fill="#f2f0ef"/>
          <path id="Path_399" data-name="Path 399" d="M1068.284,529.4s1.46,20.87,23.223,24.692c0,0-21.732,3.728-22.251,23.857,0,0-1.217-22.419-24.669-22.665C1044.587,555.279,1068.676,552.221,1068.284,529.4Z" transform="translate(-823.422 -424.173)" fill="#f2f0ef"/>
          <path id="Path_400" data-name="Path 400" d="M1104.119,528.993s1.46,20.871,23.223,24.692c0,0-21.73,3.73-22.25,23.858,0,0-1.217-22.421-24.67-22.667C1080.422,554.876,1104.511,551.819,1104.119,528.993Z" transform="translate(-805.818 -424.371)" fill="#f2f0ef"/>
          <path id="Path_401" data-name="Path 401" d="M1031.462,563.684s1.46,20.871,23.223,24.692c0,0-21.732,3.73-22.251,23.857,0,0-1.217-22.419-24.669-22.665C1007.765,589.567,1031.855,586.51,1031.462,563.684Z" transform="translate(-841.51 -407.329)" fill="#f2f0ef"/>
          <path id="Path_402" data-name="Path 402" d="M1069.438,564.04s1.458,20.871,23.223,24.693c0,0-21.732,3.728-22.251,23.857,0,0-1.218-22.421-24.669-22.667C1045.74,589.923,1069.83,586.866,1069.438,564.04Z" transform="translate(-822.855 -407.154)" fill="#f2f0ef"/>
          <path id="Path_403" data-name="Path 403" d="M1104.99,563.635s1.458,20.871,23.223,24.692c0,0-21.732,3.73-22.251,23.858,0,0-1.218-22.421-24.67-22.667C1081.293,589.518,1105.383,586.461,1104.99,563.635Z" transform="translate(-805.39 -407.353)" fill="#f2f0ef"/>
        </g>
      </g>
    </g>
  </g>
</svg>
