<svg id="Group_763" data-name="Group 763" xmlns="http://www.w3.org/2000/svg" xmlns:xlink="http://www.w3.org/1999/xlink" width="117.397" height="107.496" viewBox="0 0 117.397 107.496">
  <defs>
    <clipPath id="clip-path">
      <rect id="Rectangle_350" data-name="Rectangle 350" width="117.397" height="107.496" fill="#c08c14"/>
    </clipPath>
  </defs>
  <g id="Group_762" data-name="Group 762" clip-path="url(#clip-path)">
    <path id="Path_577" data-name="Path 577" d="M116.927,105.226a7.81,7.81,0,0,1-5.48,2.27,7.7,7.7,0,0,1-5.47-2.27,5.808,5.808,0,0,0-8.11,0,7.738,7.738,0,0,1-10.95,0,5.808,5.808,0,0,0-8.11,0,7.685,7.685,0,0,1-5.47,2.27,7.787,7.787,0,0,1-5.47-2.27,5.807,5.807,0,0,0-8.13,0,7.713,7.713,0,0,1-10.93,0,5.795,5.795,0,0,0-8.12,0,7.738,7.738,0,0,1-10.95,0,5.808,5.808,0,0,0-8.11,0,7.7,7.7,0,0,1-5.47,2.27,7.81,7.81,0,0,1-5.48-2.27,5.795,5.795,0,0,0-8.12,0,1,1,0,0,1-1.41-1.41,7.738,7.738,0,0,1,10.95,0,5.795,5.795,0,0,0,8.12,0,7.713,7.713,0,0,1,10.93,0,5.807,5.807,0,0,0,8.13,0,7.787,7.787,0,0,1,5.47-2.27,7.685,7.685,0,0,1,5.47,2.27,5.808,5.808,0,0,0,8.11,0,7.738,7.738,0,0,1,10.95,0,5.885,5.885,0,0,0,8.11,0,7.7,7.7,0,0,1,5.47-2.27,7.828,7.828,0,0,1,5.48,2.27,5.795,5.795,0,0,0,8.12,0,7.713,7.713,0,0,1,10.93,0,5.807,5.807,0,0,0,8.13,0,1,1,0,0,1,1.41,1.41" fill="#c08c14"/>
    <path id="Path_578" data-name="Path 578" d="M102.717,82.51,91.677,71.5H60.827V61.94h3.44a.93.93,0,1,0,0-1.86h-3.44V27.01h40.32V19.63a3.539,3.539,0,0,0-.63-2.04,3.581,3.581,0,0,0-1.67-1.33L66.9,3.71a5.4,5.4,0,0,0-2.06-.4h-4V.94a.935.935,0,1,0-1.87,0V3.31h-4.02a5.4,5.4,0,0,0-2.06.4L20.937,16.26a3.591,3.591,0,0,0-2.29,3.37v7.38h40.32V60.04h-9.71l-.02-.05-6.78-13.92a3.61,3.61,0,0,0-1.34-1.48,3.569,3.569,0,0,0-1.91-.55H18.677a2.289,2.289,0,0,0-2.04,3.3L29.1,72.23l-.04.04L16.947,84.06a.9.9,0,0,0-.26.64.956.956,0,0,0,.94.95h.01a.993.993,0,0,0,.64-.26l12.4-12.03h21.06l-.13.13-10.9,10.57a.936.936,0,0,0,.01,1.3,1,1,0,0,0,.68.29h.01a.919.919,0,0,0,.63-.26l12.42-12.03H59V84.55H52.2a.93.93,0,1,0,0,1.86h15.44a.93.93,0,1,0,0-1.86h-6.79V73.36h8.59l.02.03,11.99,11.99a3.616,3.616,0,0,0,2.52,1.03h17.16a2.274,2.274,0,0,0,1.59-3.9M64.807,5.17a3.76,3.76,0,0,1,1.4.28h.01l32.31,12.7h-.07a1.743,1.743,0,0,1,.83,1.48v5.52H77.3v-6.8a3.588,3.588,0,0,0-1.23-2.64L64.247,5.17ZM42.9,18.41V25.2H20.517V19.63A1.733,1.733,0,0,1,21.627,18L53.567,5.45a3.809,3.809,0,0,1,1.37-.28h1.01l-.15.13L44.117,15.71a3.6,3.6,0,0,0-1.22,2.7M30.517,70.84,18.377,46.56a.407.407,0,0,1-.04-.47.4.4,0,0,1,.33-.18h20.57a1.752,1.752,0,0,1,1.57.98L47.2,60.03h-5.88Zm1.99.66,9.55-9.56h6.01l4.67,9.56Zm26.47,0h-4.1v-.08l-.08-.01a.757.757,0,0,0,.01-.15l-4.55-9.36h.12l8.6.04ZM44.787,25.2V18.41a1.8,1.8,0,0,1,.59-1.31L58.837,5.17h2.62l.03.02L74.917,17.1a1.773,1.773,0,0,1,.58,1.31V25.2Zm56.57,59.11a.368.368,0,0,1-.34.24H84.007a1.752,1.752,0,0,1-1.22-.51L72.107,73.36h18.75l.02.03,10.6,10.59h-.07a.389.389,0,0,1-.05.33" fill="#c08c14"/>
    <path id="Path_579" data-name="Path 579" d="M116.522,92.633H.875a.875.875,0,0,1,0-1.75H116.522a.875.875,0,0,1,0,1.75" fill="#c08c14"/>
  </g>
</svg>
